<?xml version="1.0" encoding="UTF-8" standalone="no"?>
<!-- Created with Inkscape (http://www.inkscape.org/) -->

<svg
   version="1.1"
   id="svg9"
   xml:space="preserve"
   width="572.88"
   height="245.51868"
   viewBox="0 0 572.88 245.51868"
   sodipodi:docname="LOGO-SPORTMAGIA.svg"
   inkscape:version="1.1.2 (b8e25be833, 2022-02-05)"
   xmlns:inkscape="http://www.inkscape.org/namespaces/inkscape"
   xmlns:sodipodi="http://sodipodi.sourceforge.net/DTD/sodipodi-0.dtd"
   xmlns="http://www.w3.org/2000/svg"
   xmlns:svg="http://www.w3.org/2000/svg"><defs
     id="defs13"><clipPath
       clipPathUnits="userSpaceOnUse"
       id="clipPath27"><path
         d="M 0,184.139 H 429.66 V 0 H 0 Z"
         id="path25" /></clipPath></defs><sodipodi:namedview
     id="namedview11"
     pagecolor="#ffffff"
     bordercolor="#666666"
     borderopacity="1.0"
     inkscape:pageshadow="2"
     inkscape:pageopacity="0.0"
     inkscape:pagecheckerboard="0"
     showgrid="false"
     inkscape:zoom="1.9777266"
     inkscape:cx="286.44"
     inkscape:cy="122.86835"
     inkscape:window-width="1920"
     inkscape:window-height="1017"
     inkscape:window-x="-8"
     inkscape:window-y="-8"
     inkscape:window-maximized="1"
     inkscape:current-layer="g15" /><g
     id="g15"
     inkscape:groupmode="layer"
     inkscape:label="LOGO-SPORTMAGIA"
     transform="matrix(1.3333333,0,0,-1.3333333,0,245.51867)"><g
       id="g161"><g
         id="g17"
         transform="translate(329.7125,81.5982)"><path
           d="M 0,0 27.361,-2.329 49.48,67.584 h 26.05 l 2.658,2.749 3.568,24.718 -1.311,2.518 H -4.424 l -2.13,-2.518 11.305,-18.82 -0.983,-12.88 1.31,4.233 h 7.21 z"
           style="fill:#e2ea20;fill-opacity:1;fill-rule:nonzero;stroke:none"
           id="path19" /></g><g
         id="g21"><g
           id="g23"
           clip-path="url(#clipPath27)"><g
             id="g29"
             transform="translate(295.6873,142.8232)"><path
               d="m 0,0 c -0.946,-0.766 -2.183,-1.27 -3.367,-1.624 -2.227,-0.666 -8.625,-0.529 -12.25,0.189 0.46,2.561 0.877,4.882 1.263,7.027 1.836,1.088 3.558,0.663 5.209,0.726 1.682,0.065 3.37,0.047 5.052,-0.018 C -3.119,6.262 -2.111,6.19 -1.188,5.906 1.614,5.044 2.287,1.854 0,0 m 31.522,-37.095 -1.675,14.418 -8.765,7.291 7.206,1.781 11.635,21.477 -5.57,19.913 -29.164,8.559 -52.428,-0.119 -17.695,-96.29 8.356,-6.03 22.118,6.03 14.336,27.639 6.144,2.458 9.339,-3.142 -2.909,-27.513 34.12,-3.506 4.424,2.048 0.528,2.704 -2.74,2.949 0.082,5.674 z"
               style="fill:#e2ea20;fill-opacity:1;fill-rule:nonzero;stroke:none"
               id="path31" /></g><g
             id="g33"
             transform="translate(213.221,120.322)"><path
               d="m 0,0 c -1.599,-0.428 -2.799,-0.865 -4.036,-1.059 -3.599,-0.562 -5.649,-2.934 -7.157,-5.956 -0.692,-1.387 -1.298,-2.818 -1.91,-4.243 -0.66,-1.538 -1.861,-2.017 -3.423,-1.822 -4.535,0.565 -6.441,2.178 -7.642,6.147 -0.737,2.436 -1.163,4.967 -0.837,7.527 0.696,5.459 1.581,10.889 3.442,16.097 1.095,3.066 2.481,5.996 4.564,8.542 3.205,3.918 7.363,5.526 12.358,5.064 C -1.576,30.013 0.677,28.51 1.91,25.666 2.411,24.51 2.906,23.285 3.048,22.051 3.917,14.506 3.263,7.156 0,0 M 21.217,57.004 -8.518,61.1 -33.422,53.236 -51.772,38.49 -63.732,6.378 l 2.308,-23.266 11.112,-18.022 18.692,-7.864 9.339,-0.82 25.679,2.899 15.609,9.062 13.107,80.117 z"
               style="fill:#e2ea20;fill-opacity:1;fill-rule:nonzero;stroke:none"
               id="path35" /></g><g
             id="g37"
             transform="translate(136.9344,144.2077)"><path
               d="m 0,0 c -0.801,-3.078 -3.106,-4.689 -5.909,-5.375 -3.116,-0.763 -6.34,-0.685 -9.806,0.091 0.61,3.302 1.191,6.444 1.75,9.472 3.272,0.985 9.201,0.96 11.776,0.024 C 0.062,3.395 0.608,2.335 0,0 m 10.424,34.84 -35.389,0.119 -22.774,-0.119 -15.073,-91.51 -1.147,-7.911 21.955,-0.666 13.762,0.666 2.294,17.045 2.949,12.169 3.441,0.873 5.898,-0.709 9.83,0.709 15.565,1.913 0.328,6.881 6.881,28.69 13.926,21.609 z"
               style="fill:#e2ea20;fill-opacity:1;fill-rule:nonzero;stroke:none"
               id="path39" /></g><g
             id="g41"
             transform="translate(20.383,124.7334)"><path
               d="m 0,0 37.683,-14.254 1.147,-3.113 -6.39,-3.441 h -7.733 l -6.357,2.089 -3.113,7.398 h -32.276 l -0.983,-7.398 9.502,-20.93 16.22,-6.882 20.48,-1.474 22.774,5.734 10.65,53.74 -7.865,4.423 -25.395,6.572 -0.855,5.553 6.59,1.732 6.43,-1.405 2.909,-5.079 5.079,-1.474 11.398,0.673 4.827,1.93 2.452,24.758 -13.107,6.062 -20.48,1.475 L 10.486,50.79 -4.26,37.355 -8.356,28.017 -9.667,22.464 V 14.909 L -5.898,4.408 Z"
               style="fill:#e2ea20;fill-opacity:1;fill-rule:nonzero;stroke:none"
               id="path43" /></g><g
             id="g45"
             transform="translate(228.1063,82.4028)"><path
               d="m 0,0 c -0.323,0.139 -0.611,0.349 -0.904,0.355 -0.164,0.004 -0.335,-0.329 -0.503,-0.51 0.298,-0.202 0.596,-0.404 0.894,-0.606 C -0.376,-0.558 -0.24,-0.355 0,0 m -147.829,61.045 c -2.727,0.495 -2.728,0.472 -4.901,-0.251 1.423,-1.101 2.771,-1.78 4.554,-1.738 0.125,0.717 0.216,1.24 0.347,1.989 m -19.532,3.75 c 0.321,1.866 0.238,3.465 -1.508,4.041 -2.911,0.962 -5.925,1.413 -9.16,-0.291 3.2,-2.651 6.789,-3.221 10.668,-3.75 m -5.058,-39.081 c -0.474,0.511 -0.687,0.922 -1.017,1.069 -4.226,1.881 -8.618,3.263 -13.142,4.208 -0.456,0.095 -0.992,-0.189 -1.468,-0.292 0,-0.787 -0.011,-1.344 0.002,-1.899 0.063,-2.663 1.636,-4.105 4.037,-4.662 3.175,-0.737 6.389,-0.73 9.532,0.208 0.713,0.213 1.3,0.85 2.056,1.368 M -19.127,13.046 c -0.617,-0.251 -1.002,-0.284 -1.082,-0.457 -2.096,-4.581 -4.178,-9.168 -6.198,-13.783 -0.172,-0.393 0.112,-0.986 0.198,-1.582 3.714,0.402 7.165,0.766 10.484,2.554 -1.132,4.414 -2.233,8.707 -3.402,13.268 M 95.869,43.945 c 0.336,-0.849 0.369,-1.172 0.547,-1.35 3.886,-3.863 4.881,-8.747 4.977,-13.959 0.079,-4.252 -0.592,-8.43 -1.228,-12.61 -0.424,-2.785 -0.92,-5.56 -1.311,-8.349 -0.169,-1.2 0.201,-2.202 1.646,-2.57 0.238,0.323 0.63,0.62 0.694,0.977 3.326,18.441 6.627,36.886 9.91,55.334 0.116,0.656 0.014,1.351 0.014,2.247 h -2.789 c -2.291,-7.74 -5.746,-14.758 -12.46,-19.72 m 16.676,-55.031 c 0.071,2.41 -1.164,3.746 -3.519,3.962 -2.149,0.196 -4.211,-0.099 -6.162,-1.044 -6.529,-3.164 -10.666,-8.533 -13.719,-14.899 -0.061,-0.127 -0.129,-0.257 -0.154,-0.393 -0.303,-1.637 -1.045,-3.467 0.428,-4.76 1.267,-1.112 3.032,-0.695 4.426,-0.081 2.822,1.244 5.675,2.516 8.257,4.177 3.194,2.054 6.075,4.562 8.304,7.723 1.161,1.647 1.91,3.432 2.139,5.315 M 79.05,-26.132 c 1.26,4.008 2.388,7.682 4.889,10.631 2.53,2.985 5.243,5.815 8.054,8.909 -0.675,0.277 -1.145,0.598 -1.644,0.653 -3.912,0.428 -11.734,0.119 -14.403,-0.552 -0.362,-0.805 -0.712,-1.723 -1.171,-2.582 -1.743,-3.267 -4.889,-3.966 -7.62,-1.412 -1.762,1.648 -3.663,2.047 -5.81,1.684 -1.215,-0.206 -2.512,-0.612 -3.508,-1.306 -4.061,-2.828 -7.792,-6.054 -10.956,-9.89 -0.268,-0.325 -0.485,-0.692 -0.705,-1.053 -0.147,-0.239 -0.369,-0.505 -0.36,-0.752 0.024,-0.667 -0.062,-1.517 0.304,-1.943 0.35,-0.406 1.371,-0.692 1.828,-0.472 2.529,1.217 5.002,2.558 7.443,3.948 1.831,1.043 3.552,2.281 5.38,3.329 2.786,1.598 5.363,1.337 7.677,-1.017 1.483,-1.508 3.023,-2.96 4.578,-4.395 1.643,-1.517 3.329,-2.99 6.024,-3.78 m -93.935,64.051 c 3.262,7.156 3.917,14.506 3.048,22.051 -0.143,1.234 -0.637,2.459 -1.138,3.615 -1.233,2.844 -3.486,4.347 -6.551,4.631 -4.995,0.462 -9.154,-1.146 -12.359,-5.064 -2.082,-2.546 -3.468,-5.476 -4.563,-8.542 -1.861,-5.208 -2.746,-10.638 -3.442,-16.097 -0.326,-2.56 0.1,-5.091 0.837,-7.526 1.2,-3.97 3.106,-5.583 7.641,-6.148 1.562,-0.195 2.764,0.284 3.424,1.822 0.611,1.426 1.218,2.857 1.91,4.243 1.507,3.022 3.557,5.394 7.157,5.956 1.237,0.194 2.437,0.631 4.036,1.059 m 163.977,30.928 c 4.844,0.022 9.352,-0.015 13.856,0.079 4.478,0.094 8.985,-0.397 13.711,0.404 1.697,6.78 2.448,13.646 3.765,20.397 0.235,1.206 0.183,2.469 0.259,3.631 -1.763,1.214 -3.506,0.83 -5.146,0.832 -23.855,0.028 -47.71,0.02 -71.566,0.018 -0.988,0 -1.979,0.024 -2.962,-0.052 -0.495,-0.038 -0.974,-0.274 -1.906,-0.555 1.252,-1.153 2.154,-1.998 3.071,-2.827 3.583,-3.241 5.808,-7.278 6.684,-11.988 0.384,-2.063 0.296,-4.213 0.426,-6.323 0.067,-1.099 -0.231,-2.287 0.759,-3.168 2.232,-0.919 4.79,0.267 7.233,-1.112 -0.586,-5.601 -1.813,-11.098 -2.775,-16.636 -0.967,-5.56 -1.918,-11.124 -2.902,-16.681 -0.984,-5.557 -2.094,-11.094 -2.976,-16.667 -0.874,-5.529 -2.291,-10.984 -2.666,-16.466 1.593,-1.022 3.031,-0.53 4.408,-0.562 2.517,-0.059 5.038,-0.446 7.468,0.804 1.238,0.636 2.576,0.051 3.441,-0.969 1.612,-1.902 3.51,-2.102 5.656,-1.382 1.73,4.116 5.405,16.754 5.821,20.146 -0.961,0.787 -2.017,1.699 -3.123,2.548 -3.357,2.58 -6.738,5.13 -10.099,7.706 -0.783,0.6 -1.569,1.207 -2.274,1.893 -1.113,1.084 -1.41,2.459 -0.927,3.9 0.483,1.44 1.524,2.361 3.097,2.505 0.982,0.091 1.971,0.115 2.958,0.148 4.373,0.149 8.748,0.267 13.12,0.45 1.09,0.046 2.172,0.292 3.312,0.453 0.494,1.55 0.948,2.879 1.341,4.227 1.343,4.605 2.616,9.232 4.025,13.817 0.404,1.315 0.902,2.802 1.842,3.706 1.331,1.278 1.914,2.702 2.217,4.401 0.17,0.95 0.475,1.875 0.852,3.323 M -39.341,-2.903 c 2.694,7.463 5.317,14.729 8.017,22.209 -1.078,0.316 -1.847,0.592 -2.638,0.766 -5.75,1.271 -8.921,4.982 -10.253,10.575 -0.697,2.928 -0.878,5.878 -0.581,8.829 0.637,6.336 1.883,12.554 4.235,18.504 1.252,3.168 2.853,6.143 5.078,8.748 5.002,5.855 11.448,7.444 18.741,6.072 3.162,-0.595 5.662,-2.452 7.381,-5.252 1.272,-2.07 2.072,-4.303 2.51,-6.692 1.249,-6.831 0.339,-13.488 -1.547,-20.069 -0.465,-1.622 -1.016,-3.219 -1.535,-4.856 2.016,-4.292 3.038,-8.773 3.171,-13.492 0.083,-2.959 0.372,-5.918 0.708,-8.86 0.318,-2.778 0.669,-5.577 2.208,-8.205 3.224,1.071 5.652,2.621 5.802,6.395 0.05,1.255 0.451,2.495 0.672,3.745 2.7,15.278 5.395,30.557 8.094,45.836 1.202,6.805 2.358,13.62 3.639,20.411 0.467,2.476 -0.147,4.314 -2.108,5.945 -3.754,3.12 -7.947,5.348 -12.6,6.729 -8.547,2.535 -17.331,2.971 -25.995,1.454 -21.979,-3.847 -37.568,-15.915 -45.698,-37.018 -2.352,-6.106 -3.501,-12.454 -4.023,-18.97 -0.352,-4.392 -0.427,-8.717 0.453,-13.055 3.115,-15.358 13.512,-28.207 34.089,-29.971 0.543,-0.047 1.104,0.106 2.18,0.222 m -22.23,87.733 c -0.609,0.675 -1.094,1.361 -1.719,1.878 -2.193,1.816 -4.723,3.046 -7.341,4.132 -6.383,2.648 -13.136,3.236 -19.908,3.305 -14.102,0.146 -28.205,0.059 -42.308,0.038 -1.095,-0.002 -2.19,-0.231 -3.499,-0.379 -0.359,-1.492 -0.746,-2.831 -0.995,-4.195 -0.683,-3.744 -1.294,-7.501 -1.957,-11.249 -4.376,-24.707 -8.765,-49.411 -13.118,-74.122 -0.26,-1.475 -0.669,-2.999 -0.144,-4.684 0.789,-0.11 1.465,-0.284 2.142,-0.286 8.462,-0.021 16.923,-0.032 25.385,0.005 0.934,0.004 1.866,0.328 2.826,0.508 0.358,1.575 0.728,2.936 0.971,4.318 1.195,6.803 2.359,13.611 3.528,20.419 0.236,1.376 0.254,2.826 1.656,4.171 1.241,0.046 2.772,0.138 4.303,0.153 5.359,0.053 10.729,-0.12 16.072,0.184 3.776,0.214 7.523,1.014 11.265,1.657 0.922,0.158 1.776,0.722 2.643,1.092 0.306,3.982 0.565,7.772 0.896,11.556 0.343,3.938 0.853,7.862 2.146,11.616 1.238,3.594 2.387,7.248 4.003,10.674 1.677,3.554 3.667,7.003 5.891,10.244 2.131,3.107 4.738,5.887 7.262,8.965 m -81.431,5.272 c -3.721,2.763 -7.829,4.244 -12.116,5.139 -11.425,2.386 -22.732,1.707 -33.834,-1.85 -4.591,-1.471 -8.889,-3.614 -12.722,-6.585 -9.448,-7.324 -13.615,-17.046 -12.807,-28.883 0.388,-5.673 2.995,-10.262 7.815,-13.388 2.121,-1.376 4.348,-2.682 6.692,-3.599 4.193,-1.639 8.492,-3.019 12.782,-4.398 4.561,-1.466 9.18,-2.753 13.738,-4.228 1.46,-0.473 2.907,-1.145 4.183,-1.992 2.447,-1.622 2.976,-4.566 1.477,-7.092 -0.821,-1.382 -1.973,-2.469 -3.432,-3.043 -5.764,-2.27 -11.525,-2.5 -17.202,0.349 -1.983,0.995 -3.371,2.511 -4.068,4.645 -0.338,1.036 -0.739,2.052 -1.192,3.295 -4.945,0.021 -9.728,0.127 -14.508,0.04 -4.746,-0.087 -9.527,0.453 -14.319,-0.396 -0.193,-0.758 -0.413,-1.281 -0.449,-1.817 -0.479,-7.124 1.644,-13.371 6.464,-18.647 4.109,-4.498 9.268,-7.324 15.037,-9.075 8.272,-2.511 16.73,-2.295 25.18,-1.407 5.341,0.56 10.528,1.921 15.569,3.833 1.923,0.729 2.876,1.895 3.229,3.958 2.621,15.292 5.347,30.567 8.011,45.852 0.138,0.791 0.018,1.627 0.018,2.683 -2.443,0.978 -4.731,2.087 -7.135,2.814 -4.18,1.265 -8.438,2.269 -12.65,3.432 -2.715,0.749 -5.431,1.51 -8.095,2.417 -1.32,0.449 -2.59,1.135 -3.765,1.896 -1.917,1.242 -2.945,3.039 -2.594,5.391 0.327,2.194 1.868,3.381 3.761,4.214 0.256,0.112 0.535,0.174 0.805,0.254 3.906,1.157 7.812,1.064 11.676,-0.139 2.251,-0.702 3.996,-2.05 4.84,-4.372 0.332,-0.912 0.747,-1.793 1.19,-2.846 4.817,-0.163 9.568,-0.374 14.182,0.118 1.419,3.677 4.11,18.576 4.239,23.427 M 85.013,43.814 c 1.391,0.692 2.334,1.207 3.313,1.641 5.091,2.257 8.924,5.865 11.583,10.738 3.191,5.848 4.605,12.132 4.249,18.755 -0.372,6.932 -3.789,11.991 -10.005,15.09 -2.796,1.394 -5.806,2.155 -8.869,2.733 -5.713,1.077 -11.504,1.334 -17.282,1.385 -13.833,0.124 -27.669,0.052 -41.503,0.04 -1.39,-0.001 -2.781,-0.13 -4.264,-0.205 C 21.83,92.876 21.41,91.99 21.192,91.056 20.839,89.546 20.612,88.007 20.342,86.479 15.57,59.381 10.79,32.284 6.047,5.18 5.739,3.423 5.192,1.644 5.583,-0.312 c 3.866,-1.043 7.272,-0.422 10.498,1.786 4.833,3.308 8.917,7.405 12.42,12.031 3.49,4.608 6.672,9.45 9.986,14.191 1.212,1.735 2.37,3.51 3.645,5.196 0.584,0.773 1.312,1.495 2.113,2.034 2.073,1.395 4.098,1.3 5.624,-0.667 1.193,-1.54 2.564,-1.98 4.319,-2.167 2.098,-0.223 4.2,-0.55 6.252,-1.037 2.76,-0.656 4.368,-2.541 4.72,-5.338 0.192,-1.527 0.22,-3.101 0.095,-4.636 -0.391,-4.782 -0.905,-9.554 -1.336,-14.334 -0.11,-1.23 -0.502,-2.534 0.652,-3.77 0.56,0 1.254,-0.068 1.931,0.011 3.093,0.361 5.937,0.045 7.989,-2.684 0.663,-0.882 1.636,-1.042 2.648,-1.042 5.364,-0.001 10.728,0.006 16.092,0.018 0.28,0.001 0.561,0.056 0.837,0.11 1.036,0.201 1.814,1.613 1.093,2.228 -2.378,2.027 -1.81,4.449 -1.399,7.011 0.894,5.569 1.78,11.148 2.354,16.755 0.269,2.629 -0.055,5.348 -0.358,7.998 -0.282,2.476 -1.562,4.544 -3.591,6.02 -1.362,0.991 -2.856,1.803 -4.295,2.688 -0.809,0.498 -1.626,0.982 -2.859,1.724 M -12.98,-5.237 c -2.914,-0.706 -5.357,-1.374 -7.833,-1.875 -2.068,-0.418 -4.168,-0.75 -6.269,-0.916 -1.747,-0.137 -2.917,-0.804 -3.552,-2.468 -0.806,-2.108 -1.75,-4.164 -2.527,-6.282 -2.914,-7.945 -5.78,-15.908 -8.675,-23.86 -0.433,-1.19 -0.847,-2.399 -1.419,-3.523 -0.685,-1.347 -2.138,-1.503 -3.136,-0.414 -1.588,1.734 -2.376,3.811 -2.49,6.144 -0.147,3.004 0.508,5.88 1.374,8.732 1.844,6.073 3.655,12.155 5.449,18.243 0.267,0.906 0.365,1.862 0.577,2.983 -2.28,0.445 -4.334,0.845 -6.388,1.248 -16.222,3.182 -26.491,12.972 -31.592,28.486 -0.439,1.336 -0.788,2.702 -1.244,4.278 -0.769,0.075 -1.619,0.373 -2.353,0.194 -7.607,-1.858 -15.351,-2.101 -23.123,-2.132 -2.083,-0.009 -4.208,0.273 -6.313,-0.44 -1.213,-3.265 -1.423,-6.665 -2.052,-9.969 -0.871,-4.571 -1.633,-9.164 -2.454,-13.745 -0.124,-0.691 -0.215,-1.413 -0.493,-2.046 -0.721,-1.64 -1.9,-2.808 -3.77,-3.018 -1.12,-0.126 -2.251,-0.199 -3.377,-0.202 -8.612,-0.016 -17.224,0.01 -25.836,-0.02 -2.731,-0.01 -5.39,0.109 -7.45,2.211 -3.786,-1.046 -7.405,-2.227 -11.107,-3.033 -10.171,-2.214 -20.407,-2.652 -30.646,-0.436 -5.574,1.206 -10.759,3.391 -15.384,6.77 -9.725,7.107 -13.907,16.74 -12.896,28.679 0.282,3.321 1.728,4.845 4.958,5.295 1.112,0.155 2.253,0.126 3.381,0.129 5.365,0.012 10.73,-0.005 16.095,0.014 1.388,0.005 2.776,0.103 4.053,0.153 0.327,1.004 -0.204,1.207 -0.699,1.456 -2.519,1.266 -5.098,2.427 -7.536,3.833 -9.058,5.222 -12.595,13.29 -11.841,23.482 0.239,3.237 0.55,6.462 1.564,9.583 2.48,7.632 7.007,13.786 13.368,18.614 6.184,4.693 13.223,7.514 20.751,9.111 5.527,1.173 11.133,1.796 16.807,1.691 7.988,-0.149 15.705,-1.496 22.962,-4.992 0.629,-0.303 1.282,-0.557 2.022,-0.877 0.464,0.367 0.962,0.645 1.306,1.052 1.485,1.759 3.366,2.332 5.631,2.324 15.812,-0.052 31.624,0.035 47.436,-0.085 5.222,-0.04 10.399,-0.812 15.42,-2.384 5.032,-1.576 9.734,-3.751 13.67,-7.363 0.409,-0.375 0.896,-0.664 1.512,-1.114 1.063,0.671 2.139,1.305 3.169,2.007 7.438,5.072 15.526,8.581 24.399,10.235 9.709,1.808 19.374,1.647 28.957,-0.759 4.822,-1.211 9.328,-3.204 13.404,-6.108 0.892,-0.635 1.871,-1.148 3,-1.833 0.373,1.199 0.642,2.135 0.954,3.056 1.068,3.154 2.501,4.195 5.926,4.319 0.564,0.021 1.129,0.008 1.694,0.008 15.106,-0.002 30.212,-0.006 45.319,-0.005 5.517,10e-4 10.988,-0.501 16.41,-1.509 2.119,-0.394 4.14,-0.613 6.037,0.863 0.602,0.468 1.583,0.512 2.407,0.613 0.835,0.101 1.692,0.038 2.539,0.038 27.106,0.001 54.213,0.001 81.319,-0.002 0.988,0 1.986,0.054 2.962,-0.064 2.948,-0.355 4.869,-2.512 4.725,-5.476 -0.082,-1.679 -0.481,-3.344 -0.769,-5.01 -1.129,-6.532 -2.287,-13.058 -3.396,-19.593 -0.297,-1.753 -0.984,-3.199 -2.497,-4.23 -1.127,-0.768 -2.369,-0.818 -3.647,-0.818 -5.647,0.001 -11.295,-0.002 -16.942,-0.004 -1.683,0 -3.365,0 -5.16,0 -1.206,-2.053 -1.774,-4.002 -0.988,-6.144 2.231,-6.084 4.509,-12.151 6.832,-18.395 1.205,-0.146 2.291,-0.344 3.385,-0.399 5.075,-0.255 10.151,-0.469 15.228,-0.699 0.423,-0.019 0.845,-0.045 1.268,-0.065 1.724,-0.081 2.978,-0.834 3.472,-2.552 0.477,-1.657 0.028,-3.093 -1.308,-4.171 -2.307,-1.862 -4.649,-3.679 -6.987,-5.501 -2.667,-2.08 -5.346,-4.146 -8.043,-6.235 -0.121,-3.477 1.454,-6.4 2.361,-9.461 0.912,-3.076 1.571,-6.264 3.242,-9.35 1.436,0.415 2.751,0.816 4.077,1.176 2.331,0.633 4.679,1.003 7.11,0.593 1.323,-0.223 2.403,-0.809 3.238,-1.824 2.433,-2.957 2.948,-7.257 0.429,-11.033 -1.449,-2.173 -4.629,-2.567 -6.666,-0.794 -1.308,1.139 -2.506,2.165 -4.393,2.188 -2.215,0.027 -4.182,-0.51 -5.926,-1.854 -3.356,-2.586 -6.697,-5.194 -9.42,-8.481 -0.627,-0.757 -1.21,-1.558 -1.731,-2.39 -0.471,-0.751 -0.636,-1.577 -0.003,-2.355 0.638,-0.783 1.488,-0.833 2.283,-0.408 2.48,1.327 4.933,2.706 7.376,4.102 1.954,1.117 3.836,2.365 5.823,3.417 2.397,1.269 4.62,0.877 6.578,-1.03 1.213,-1.181 2.529,-2.264 3.688,-3.495 2.971,-3.158 6.563,-5.302 10.619,-6.729 1.196,-0.421 2.433,-0.754 3.576,-1.288 0.732,-0.342 1.514,-0.856 1.943,-1.51 0.895,-1.364 1.088,-2.968 0.22,-4.4 -0.681,-1.123 -2.009,-0.789 -3.114,-0.829 -2.176,-0.079 -4.177,0.57 -6.087,1.54 -3.906,1.984 -7.753,4.062 -11.007,7.064 -2.808,2.592 -6.005,2.981 -9.41,1.461 -1.53,-0.683 -2.972,-1.599 -4.364,-2.542 -1.163,-0.788 -2.186,-1.781 -3.289,-2.662 -3.052,-2.438 -6.525,-3.924 -10.402,-4.35 -1.234,-0.136 -2.539,-0.093 -3.755,0.15 -2.737,0.545 -3.837,2.08 -3.445,4.85 0.195,1.378 0.678,2.734 1.173,4.047 2.071,5.496 5.295,10.278 9.339,14.494 1.853,1.931 3.914,3.662 5.881,5.484 0.918,0.85 1.835,1.7 2.744,2.542 -2.125,2.443 -11.665,9.256 -15.616,11.17 -0.505,-0.248 -1.163,-0.49 -1.733,-0.867 -0.925,-0.61 -1.792,-1.309 -2.559,-1.877 -0.034,-0.513 -0.137,-0.814 -0.057,-1.054 0.878,-2.654 0.26,-4.823 -1.534,-7.029 -6.071,-7.462 -10.057,-15.951 -11.878,-25.432 -0.319,-1.66 -0.789,-3.29 -1.2,-4.932 -0.137,-0.547 -0.269,-1.101 -0.468,-1.627 -0.674,-1.779 -2.121,-2.93 -3.349,-2.701 -1.397,0.26 -2.793,1.595 -2.943,3.244 -0.268,2.949 -0.283,5.902 0.391,8.836 1.329,5.782 2.943,11.474 5.058,17.021 0.29,0.76 0.446,1.57 0.699,2.485 -1.909,1.087 -3.623,0.878 -5.482,0.204 -0.276,-1.104 -0.609,-2.178 -0.809,-3.276 -2.856,-15.658 -8.275,-30.463 -15.049,-44.793 -2.783,-5.888 -6.469,-11.262 -10.529,-16.346 -5.468,-6.848 -12.609,-10.709 -21.36,-11.518 -2.856,-0.264 -5.642,0.185 -8.322,1.123 -1.831,0.641 -2.458,1.796 -2.287,3.58 0.147,1.549 1.049,2.697 2.563,2.951 1.103,0.185 2.256,0.223 3.373,0.141 7.756,-0.57 13.631,2.792 18.29,8.692 4.126,5.226 7.662,10.849 10.553,16.83 2.577,5.329 4.852,10.806 7.19,16.247 0.485,1.129 0.663,2.39 0.962,3.512 -0.865,0.848 -1.477,0.233 -2.008,-0.069 -1.593,-0.907 -3.095,-1.978 -4.706,-2.848 -1.98,-1.068 -4.003,-2.07 -6.063,-2.972 -6.145,-2.691 -12.148,-1.788 -17.957,1.03 -3.681,1.786 -7.266,3.788 -10.284,6.629 -3.213,3.024 -6.835,3.219 -10.536,1.239 -2.092,-1.119 -3.997,-2.634 -5.853,-4.136 -3.256,-2.635 -6.838,-4.458 -11.024,-5.001 -0.28,-0.036 -0.554,-0.141 -0.832,-0.152 -5.529,-0.211 -7.861,1.805 -6.12,7.332 2.035,6.462 5.731,11.927 10.383,16.771 3.335,3.472 7.047,6.511 10.987,9.275 1.143,0.802 2.255,1.65 3.064,2.243 0.693,6.889 1.351,13.338 1.983,19.789 0.11,1.122 0.169,2.257 0.147,3.383 -0.045,2.215 -0.73,3.058 -2.965,3.344 -1.368,0.175 -2.776,0.033 -4.291,0.033 C 49.395,19.305 45.793,11.98 42.615,4.457 41.966,2.919 41.819,1.176 41.338,-0.442 40.983,-1.637 40.763,-3.083 39.957,-3.893 38.058,-5.799 37.314,-8.21 36.437,-10.568 32.7,-20.616 29.03,-30.688 25.335,-40.751 c -0.389,-1.059 -0.719,-2.146 -1.196,-3.165 -0.834,-1.783 -2.329,-1.898 -3.654,-0.328 -1.939,2.297 -2.643,5.013 -2.226,7.909 0.379,2.641 0.935,5.284 1.718,7.833 1.862,6.065 3.916,12.072 5.865,18.112 0.381,1.182 0.636,2.406 0.965,3.669 -1.338,1.146 -2.793,0.82 -4.151,0.866 -1.578,0.053 -3.016,-0.36 -4.467,-1.056 -3.046,-1.46 -6.165,-2.775 -9.297,-4.044 -3.07,-1.244 -6.326,-1.454 -9.582,-1.2 -3.907,0.304 -7.431,1.607 -10.182,4.555 -0.668,0.716 -1.304,1.461 -2.108,2.363"
               style="fill:#231f20;fill-opacity:1;fill-rule:nonzero;stroke:none"
               id="path47" /></g><g
             id="g49"
             transform="translate(280.0703,141.3878)"><path
               d="m 0,0 c 3.625,-0.718 10.023,-0.854 12.25,-0.188 1.184,0.354 2.421,0.857 3.367,1.623 2.287,1.854 1.614,5.045 -1.188,5.907 C 13.506,7.625 12.498,7.698 11.525,7.736 9.842,7.801 8.154,7.819 6.472,7.754 4.821,7.69 3.099,8.115 1.263,7.027 0.877,4.882 0.46,2.562 0,0 m -6.035,-5.13 c 0.901,6.218 1.948,11.848 3.161,17.537 1.254,0.225 2.19,0.525 3.131,0.539 3.657,0.057 7.318,0.107 10.972,-0.015 1.667,-0.056 3.383,-0.325 4.967,-0.837 3.138,-1.013 5.532,-2.997 5.907,-6.469 0.369,-3.417 -0.785,-6.38 -3.628,-8.513 -1.605,-1.204 -3.439,-1.946 -5.401,-2.253 -2.08,-0.325 -4.183,-0.602 -6.284,-0.674 -3.232,-0.11 -6.472,-0.073 -9.706,0.002 -0.921,0.022 -1.833,0.39 -3.119,0.683"
               style="fill:#231f20;fill-opacity:1;fill-rule:nonzero;stroke:none"
               id="path51" /></g><g
             id="g53"
             transform="translate(121.2197,138.9234)"><path
               d="m 0,0 c 3.466,-0.775 6.69,-0.853 9.805,-0.091 2.804,0.686 5.109,2.297 5.91,5.375 0.607,2.335 0.061,3.395 -2.189,4.213 C 10.951,10.432 5.022,10.457 1.75,9.473 1.19,6.444 0.61,3.303 0,0 m -5.834,-4.724 c 0.836,6.759 2.039,13.202 3.575,19.287 0.47,0.305 0.578,0.429 0.703,0.449 5.479,0.85 10.966,0.763 16.313,-0.639 5.58,-1.465 7.583,-5.611 5.692,-11.088 -1.562,-4.527 -4.982,-7.039 -9.407,-8.318 -2.567,-0.742 -13.338,-0.536 -16.876,0.309"
               style="fill:#231f20;fill-opacity:1;fill-rule:nonzero;stroke:none"
               id="path55" /></g><g
             id="g57"
             transform="translate(377.4956,139.4776)"><path
               d="m 0,0 -7.462,-21.261 -22.511,-0.97 17.914,-13.666 -6.034,-21.71 18.534,12.815 18.782,-12.448 -6.461,21.587 17.643,14.016 -22.526,0.527 z"
               style="fill:#ed212d;fill-opacity:1;fill-rule:nonzero;stroke:none"
               id="path59" /></g></g></g></g></g></svg>
